<svg xmlns="http://www.w3.org/2000/svg" width="13.753" height="20" viewBox="0 0 13.753 20">
  <g id="pin_1_" data-name="pin (1)" transform="translate(-79.968 0)">
    <path id="Path_10" data-name="Path 10" d="M86.844,20a1.194,1.194,0,0,1-1.046-.606l-.007-.012L80.832,10.3a6.963,6.963,0,0,1,.091-6.88A6.787,6.787,0,0,1,86.69,0c.1,0,.205,0,.308,0a6.787,6.787,0,0,1,5.767,3.423,6.963,6.963,0,0,1,.091,6.88L87.9,19.382l-.007.012A1.194,1.194,0,0,1,86.844,20Zm0-18.75h-.128A5.546,5.546,0,0,0,82,4.051,5.722,5.722,0,0,0,81.929,9.7l4.915,9,4.915-9a5.722,5.722,0,0,0-.075-5.654,5.546,5.546,0,0,0-4.711-2.8h-.128Z" transform="translate(0)" fill="#b40000"/>
    <path id="Path_11" data-name="Path 11" d="M186.813,93.625a2.813,2.813,0,1,1,2.813-2.812A2.816,2.816,0,0,1,186.813,93.625Zm0-4.375a1.563,1.563,0,1,0,1.563,1.563A1.564,1.564,0,0,0,186.813,89.25Z" transform="translate(-99.969 -84.563)" fill="#b40000"/>
  </g>
</svg>
